<?xml version="1.0" encoding="UTF-8" standalone="no" ?>
<!DOCTYPE svg PUBLIC "-//W3C//DTD SVG 1.1//EN" "http://www.w3.org/Graphics/SVG/1.1/DTD/svg11.dtd">
<svg xmlns="http://www.w3.org/2000/svg" xmlns:xlink="http://www.w3.org/1999/xlink" version="1.1" width="1080" height="1080" viewBox="0 0 1080 1080" xml:space="preserve">
<desc>Created with Fabric.js 5.2.4</desc>
<defs>
</defs>
<g transform="matrix(1 0 0 1 540 540)" id="eb29f3df-4976-42ed-8698-681e95056728"  >
<rect style="stroke: none; stroke-width: 1; stroke-dasharray: none; stroke-linecap: butt; stroke-dashoffset: 0; stroke-linejoin: miter; stroke-miterlimit: 4; fill: rgb(255,255,255); fill-rule: nonzero; opacity: 1; visibility: hidden;" vector-effect="non-scaling-stroke"  x="-540" y="-540" rx="0" ry="0" width="1080" height="1080" />
</g>
<g transform="matrix(1 0 0 1 540 540)" id="7f9493b8-65a7-4273-be45-d5900d271b4f"  >
</g>
<g transform="matrix(54 0 0 54 540 540)"  >
<g style=""   >
		<g transform="matrix(1 0 0 1 -7.43 -7.44)"  >
<path style="stroke: none; stroke-width: 1; stroke-dasharray: none; stroke-linecap: butt; stroke-dashoffset: 0; stroke-linejoin: miter; stroke-miterlimit: 4; fill: rgb(0,0,0); fill-rule: nonzero; opacity: 1;" vector-effect="non-scaling-stroke"  transform=" translate(-2.56, -2.57)" d="M 5 5 L 5 0.13 C 4.512037049809944 0.26497870351699104 4.0668516729008335 0.5228625761426089 3.706999999999998 0.8790000000000023 L 0.879 3.707 C 0.5228625761426069 4.066851672900836 0.2649787035169908 4.512037049809945 0.13000000000000034 5.000000000000001 L 5 5 Z" stroke-linecap="round" />
</g>
		<g transform="matrix(1 0 0 1 -2 0)"  >
<path style="stroke: none; stroke-width: 1; stroke-dasharray: none; stroke-linecap: butt; stroke-dashoffset: 0; stroke-linejoin: miter; stroke-miterlimit: 4; fill: rgb(0,0,0); fill-rule: nonzero; opacity: 1;" vector-effect="non-scaling-stroke"  transform=" translate(-8, -10)" d="M 6.737 11.061 C 6.8513501449916525 10.487049908558967 7.133215842709873 9.959856659123036 7.547000000000001 9.546 L 13.664000000000001 3.4299999999999997 C 14.30649053977798 2.789918166909208 15.115927253446394 2.3432726515331024 16 2.141000000000001 L 16 2 C 16.016719411856805 0.9146357414275614 15.152303966207397 0.0202586636733888 14.067 0 L 7 0 L 7 5 C 7 6.1045694996615865 6.1045694996615865 7 5 7 L 0 7 L 0 18 C -0.017272595164666175 19.08558287177326 0.847458705573644 19.980286752516466 1.933000000000001 20 L 14.067 20 C 15.152303966207397 19.97974133632661 16.016719411856805 19.08536425857244 16 18 L 16 14.907 L 14.454 16.453 C 14.041 16.866 13.514000000000001 17.148 12.941 17.262999999999998 L 9.541 17.941999999999997 C 8.916014764798405 18.068471653960845 8.26686841132617 17.988819641940196 7.691000000000001 17.714999999999996 C 6.4630451685914725 17.133287701384116 5.7888462149699835 15.790250397442106 6.056000000000001 14.457999999999998 L 6.737000000000001 11.060999999999996 Z" stroke-linecap="round" />
</g>
		<g transform="matrix(1 0 0 1 4 0.01)"  >
<path style="stroke: none; stroke-width: 1; stroke-dasharray: none; stroke-linecap: butt; stroke-dashoffset: 0; stroke-linejoin: miter; stroke-miterlimit: 4; fill: rgb(0,0,0); fill-rule: nonzero; opacity: 1;" vector-effect="non-scaling-stroke"  transform=" translate(-14, -10.01)" d="M 8.961 16 C 9.024483360063929 16.000134009662396 9.087813614698042 15.993767476127749 9.15 15.981 L 12.55 15.302 C 12.73568391623044 15.264541683258757 12.906156504395614 15.173043130835408 13.040000000000001 15.039 L 19.158 8.922 C 20.271242343026547 7.793434641408194 20.264926560519694 5.977936835928009 19.14385911539519 4.857144229598584 C 18.02279167027069 3.736351623269158 16.207292370806655 3.7304809795516816 15.079 4.843999999999999 L 8.962 10.961 C 8.827735968922878 11.09507869606086 8.736216342969618 11.265938530064858 8.699 11.452 L 8.02 14.852 C 7.964082127957571 15.133868871448705 8.037236830508242 15.42597061638164 8.219405478641622 15.648212495294628 C 8.401574126775005 15.870454374207617 8.673638500295455 15.999512564800341 8.961 16 Z M 16.438000000000002 6.199999999999999 C 16.618227341936947 6.019554012502747 16.862966057128407 5.918419337548629 17.118000000000002 5.919 C 17.508669777804545 5.916570010306242 17.861929047297426 6.1508880753549615 18.011628289250115 6.511746658595754 C 18.161327531202804 6.872605241836547 18.077668972309983 7.288175106738706 17.8 7.563 L 17.485 7.878 L 16.125 6.518 L 16.438 6.2 Z M 10.527000000000003 12.110999999999999 L 14.763000000000002 7.874999999999999 L 16.122 9.233999999999998 L 11.886 13.470999999999998 L 10.186 13.809999999999999 L 10.527 12.110999999999999 Z" stroke-linecap="round" />
</g>
</g>
</g>
<g transform="matrix(NaN NaN NaN NaN 0 0)"  >
<g style=""   >
</g>
</g>
<g transform="matrix(NaN NaN NaN NaN 0 0)"  >
<g style=""   >
</g>
</g>
</svg>