<?xml version="1.0" encoding="UTF-8" standalone="no" ?>
<!DOCTYPE svg PUBLIC "-//W3C//DTD SVG 1.1//EN" "http://www.w3.org/Graphics/SVG/1.1/DTD/svg11.dtd">
<svg xmlns="http://www.w3.org/2000/svg" xmlns:xlink="http://www.w3.org/1999/xlink" version="1.1" width="1080" height="1080" viewBox="0 0 1080 1080" xml:space="preserve">
<desc>Created with Fabric.js 5.2.4</desc>
<defs>
</defs>
<g transform="matrix(1 0 0 1 540 540)" id="682c17a1-0d2e-4d77-8096-e61aa38f65e9"  >
<rect style="stroke: none; stroke-width: 1; stroke-dasharray: none; stroke-linecap: butt; stroke-dashoffset: 0; stroke-linejoin: miter; stroke-miterlimit: 4; fill: rgb(255,255,255); fill-rule: nonzero; opacity: 1; visibility: hidden;" vector-effect="non-scaling-stroke"  x="-540" y="-540" rx="0" ry="0" width="1080" height="1080" />
</g>
<g transform="matrix(1 0 0 1 540 540)" id="844534f7-c450-408d-a52f-35be739b915d"  >
</g>
<g transform="matrix(67.5 0 0 67.5 540 540)"  >
<path style="stroke: none; stroke-width: 1; stroke-dasharray: none; stroke-linecap: butt; stroke-dashoffset: 0; stroke-linejoin: miter; stroke-miterlimit: 4; fill: rgb(0,0,0); fill-rule: nonzero; opacity: 1;"  transform=" translate(-8, -8.5)" d="M 2.97 1.35 C 3.1600026816160085 1.1278622490105792 3.4376881817885767 0.9999807686679488 3.73 1 L 12.27 1 C 12.562311818211423 0.9999807686679487 12.839997318383991 1.127862249010579 13.03 1.3499999999999999 L 15.639 4.394 C 15.871943393712936 4.665832153395287 15.999987406927959 5.0120120894004465 16 5.369999999999999 L 16 5.625 C 16.000111961549308 6.639744783351285 15.355510002480473 7.542464999507924 14.395675687338137 7.871744630443813 C 13.4358413721958 8.201024261379702 12.37283452397982 7.884114313698651 11.75 7.082999999999998 C 11.3003932639581 7.662120930627153 10.608162207886371 8.0006680657833 9.875 8 C 9.141802766769946 8.000819755584583 8.449508506182772 7.66224170920675 8 7.083 C 7.550491493817228 7.66224170920675 6.8581972332300545 8.000819755584583 6.125 8 C 5.391802766769946 8.000819755584583 4.699508506182772 7.66224170920675 4.25 7.083 C 3.6271654760201786 7.884114313698652 2.5641586278041997 8.201024261379702 1.6043243126618631 7.871744630443813 C 0.6444899975195266 7.542464999507924 -0.00011196154930992464 6.639744783351284 0 5.624999999999999 L 0 5.37 C 0.000012593072040525175 5.012012089400447 0.12805660628706403 4.665832153395288 0.36099999999999977 4.394 L 2.971 1.3490000000000002 z M 4.75 5.625 C 4.75 6.384391531017341 5.365608468982659 7 6.125 7 C 6.884391531017341 7 7.5 6.384391531017341 7.5 5.625 C 7.5 5.348857625084603 7.723857625084603 5.125 8 5.125 C 8.276142374915397 5.125 8.5 5.348857625084603 8.5 5.625 C 8.5 6.384391531017341 9.115608468982659 7 9.875 7 C 10.634391531017341 7 11.25 6.384391531017341 11.25 5.625 C 11.25 5.348857625084603 11.473857625084603 5.125 11.75 5.125 C 12.026142374915397 5.125 12.25 5.348857625084603 12.25 5.625 C 12.25 6.384391531017341 12.865608468982659 7 13.625 7 C 14.384391531017341 7 15 6.384391531017341 15 5.625 L 15 5.37 C 15.000009167227166 5.2508277396386385 14.957452802236904 5.135570917790013 14.88 5.045 L 12.27 2 L 3.73 2 L 1.12 5.045 C 1.042547197763096 5.135570917790013 0.9999908327728346 5.2508277396386385 1 5.37 L 1 5.625 C 1 6.384391531017341 1.6156084689826589 7 2.375 7 C 3.134391531017341 7 3.75 6.384391531017341 3.75 5.625 C 3.75 5.348857625084603 3.9738576250846034 5.125 4.25 5.125 C 4.526142374915397 5.125 4.75 5.348857625084603 4.75 5.625 z M 1.5 8.5 C 1.7761423749153966 8.5 2 8.723857625084603 2 9 L 2 15 L 3 15 L 3 10 C 3 9.447715250169207 3.4477152501692068 9 4 9 L 7 9 C 7.552284749830793 9 8 9.447715250169207 8 10 L 8 15 L 14 15 L 14 9 C 14 8.723857625084603 14.223857625084603 8.5 14.5 8.5 C 14.776142374915397 8.5 15 8.723857625084603 15 9 L 15 15 L 15.5 15 C 15.776142374915397 15 16 15.223857625084603 16 15.5 C 16 15.776142374915397 15.776142374915397 16 15.5 16 L 0.5 16 C 0.22385762508460327 16 0 15.776142374915397 0 15.5 C 0 15.223857625084603 0.22385762508460327 15 0.5 15 L 1 15 L 1 9 C 1 8.723857625084603 1.2238576250846034 8.5 1.5 8.5 z M 4 15 L 7 15 L 7 10 L 4 10 L 4 15 z M 9 10 C 9 9.447715250169207 9.447715250169207 9 10 9 L 12 9 C 12.552284749830793 9 13 9.447715250169207 13 10 L 13 13 C 13 13.552284749830793 12.552284749830793 14 12 14 L 10 14 C 9.447715250169207 14 9 13.552284749830793 9 13 L 9 10 z M 12 10 L 10 10 L 10 13 L 12 13 L 12 10 z" stroke-linecap="round" />
</g>
<g transform="matrix(NaN NaN NaN NaN 0 0)"  >
<g style=""   >
</g>
</g>
<g transform="matrix(NaN NaN NaN NaN 0 0)"  >
<g style=""   >
</g>
</g>
</svg>