<?xml version="1.0" encoding="UTF-8" standalone="no" ?>
<!DOCTYPE svg PUBLIC "-//W3C//DTD SVG 1.1//EN" "http://www.w3.org/Graphics/SVG/1.1/DTD/svg11.dtd">
<svg xmlns="http://www.w3.org/2000/svg" xmlns:xlink="http://www.w3.org/1999/xlink" version="1.1" width="1080" height="1080" viewBox="0 0 1080 1080" xml:space="preserve">
<desc>Created with Fabric.js 5.2.4</desc>
<defs>
</defs>
<g transform="matrix(1 0 0 1 540 540)" id="c7ba8c45-f7a8-4b29-a88b-40b48ca891c3"  >
<rect style="stroke: none; stroke-width: 1; stroke-dasharray: none; stroke-linecap: butt; stroke-dashoffset: 0; stroke-linejoin: miter; stroke-miterlimit: 4; fill: rgb(255,255,255); fill-rule: nonzero; opacity: 1; visibility: hidden;" vector-effect="non-scaling-stroke"  x="-540" y="-540" rx="0" ry="0" width="1080" height="1080" />
</g>
<g transform="matrix(1 0 0 1 540 540)" id="6a0d2ca5-1ddd-4cd7-8ef1-e4d9593a4d61"  >
</g>
<g transform="matrix(54 0 0 54 540 540)"  >
<path style="stroke: none; stroke-width: 1; stroke-dasharray: none; stroke-linecap: butt; stroke-dashoffset: 0; stroke-linejoin: miter; stroke-miterlimit: 4; fill: rgb(0,0,0); fill-rule: nonzero; opacity: 1;"  transform=" translate(-10, -9)" d="M 14 2 C 13.521032664651926 2.0036643631701865 13.046696827885459 2.094126983467792 12.599999999999998 2.2670000000000003 C 13.449226876711917 4.553179638717717 12.933957560247297 7.12294502015434 11.269 8.905000000000001 C 12.575637212602372 10.141755905445379 14.547193208477355 10.353981686959632 16.08710513472262 9.423639150890835 C 17.62701706096788 8.493296614822041 18.356322395408764 6.649337136860012 17.869387648636582 4.9173554604565854 C 17.3824529018644 3.1853737840531586 15.799109615298022 1.9915995742064627 13.999999999999998 2 Z M 15 11 L 13.736 11 C 14.558862003380252 12.171519076264792 15.000267524995422 13.568371992768492 15 14.999999999999996 L 15 17 C 14.996605630921303 17.341431981123957 14.934360312978257 17.67972175255356 14.816 18 L 19 18 C 19.552284749830793 18 20 17.552284749830793 20 17 L 20 16 C 19.99669388366542 13.239946848990442 17.760053151009554 11.00330611633458 14.999999999999998 11 Z M 6.5 9 C 8.985281374238571 9 11 6.98528137423857 11 4.5 C 11 2.0147186257614296 8.985281374238571 0 6.5 0 C 4.01471862576143 0 2 2.0147186257614296 2 4.5 C 2 6.98528137423857 4.01471862576143 9 6.5 9 Z M 8 10 L 5 10 C 2.239946848990443 10.00330611633458 0.0033061163345795563 12.239946848990444 0 15 L 0 17 C 0 17.552284749830793 0.44771525016920655 18 1 18 L 12 18 C 12.552284749830793 18 13 17.552284749830793 13 17 L 13 15 C 12.99669388366542 12.239946848990442 10.760053151009554 10.00330611633458 7.999999999999998 10 Z" stroke-linecap="round" />
</g>
<g transform="matrix(NaN NaN NaN NaN 0 0)"  >
<g style=""   >
</g>
</g>
<g transform="matrix(NaN NaN NaN NaN 0 0)"  >
<g style=""   >
</g>
</g>
</svg>